<?xml version="1.0" standalone="no"?>
<!DOCTYPE svg PUBLIC "-//W3C//DTD SVG 20010904//EN"
 "http://www.w3.org/TR/2001/REC-SVG-20010904/DTD/svg10.dtd">
<svg version="1.0" xmlns="http://www.w3.org/2000/svg"
 width="1280.000000pt" height="1280.000000pt" viewBox="0 0 1280.000000 1280.000000"
 preserveAspectRatio="xMidYMid meet">
<metadata>
Created by potrace 1.15, written by Peter Selinger 2001-2017
</metadata>
<g transform="translate(0.000000,1280.000000) scale(0.100000,-0.100000)"
fill="#ffeb3b" stroke="none">
<path d="M6314 11108 c-58 -117 -107 -214 -108 -215 0 -1 -102 -16 -226 -33
-124 -17 -232 -34 -240 -37 -10 -3 39 -57 159 -172 l174 -168 -42 -238 c-23
-131 -40 -239 -39 -241 2 -1 96 47 211 107 114 60 213 109 220 109 6 0 104
-50 217 -110 123 -65 206 -104 208 -97 1 7 -16 113 -37 237 l-40 225 177 172
c97 95 174 173 170 173 -4 0 -111 16 -238 35 -127 19 -233 35 -236 35 -3 0
-52 97 -109 215 -57 118 -106 215 -109 215 -3 0 -54 -96 -112 -212z"/>
<path d="M8110 10661 l-125 -118 -159 34 c-88 18 -163 32 -167 31 -4 -2 26
-72 66 -156 l74 -152 -85 -148 c-46 -81 -80 -148 -76 -149 4 -2 80 8 170 20
l163 23 117 -129 c87 -96 118 -125 120 -111 2 11 15 87 30 169 l27 150 65 33
c36 18 107 52 159 75 l94 42 -149 79 c-82 44 -151 81 -153 83 -3 2 -13 76 -22
164 -10 89 -19 165 -21 170 -2 4 -59 -45 -128 -110z"/>
<path d="M4506 10673 c-4 -54 -10 -132 -14 -172 l-7 -75 -142 -85 c-79 -47
-143 -88 -143 -91 0 -3 71 -32 158 -66 l157 -61 36 -154 c19 -85 38 -160 40
-168 3 -9 45 34 114 117 89 108 113 132 134 132 14 0 91 -7 171 -15 79 -7 146
-13 147 -12 1 2 -38 65 -88 142 -49 77 -89 145 -89 152 0 6 29 79 64 162 35
83 60 151 54 151 -5 0 -80 -19 -167 -41 l-159 -42 -114 99 c-62 55 -120 105
-130 112 -15 12 -17 4 -22 -85z"/>
<path d="M3589 9311 c-465 -212 -715 -445 -799 -743 -23 -82 -37 -250 -26
-322 l7 -47 57 6 c88 10 221 44 289 75 289 131 466 420 572 935 17 82 29 150
28 151 -1 1 -59 -23 -128 -55z"/>
<path d="M9086 9337 c122 -682 342 -1008 744 -1105 47 -11 111 -23 142 -27
l57 -6 7 47 c11 72 -3 240 -26 322 -77 276 -309 505 -705 698 -82 40 -167 79
-187 88 l-37 15 5 -32z"/>
<path d="M2272 8948 c-91 -184 -143 -317 -180 -463 -33 -130 -38 -360 -9 -465
34 -124 110 -262 206 -370 l40 -45 61 60 c77 76 155 188 192 277 84 199 78
444 -18 719 -32 93 -196 449 -207 449 -2 0 -40 -73 -85 -162z"/>
<path d="M10356 8940 c-142 -294 -196 -484 -196 -687 0 -59 7 -138 15 -175 30
-145 117 -297 235 -413 l61 -60 35 40 c102 117 178 251 209 370 26 96 30 255
11 376 -29 176 -121 421 -239 639 l-46 85 -85 -175z"/>
<path d="M5580 8260 l0 -370 -435 0 -435 0 2 -227 3 -228 200 -5 c182 -5 204
-7 242 -27 50 -27 87 -73 102 -128 14 -53 15 -2034 1 -2086 -5 -19 -24 -48
-41 -65 l-30 -29 -202 -5 -202 -5 -42 -240 c-23 -132 -42 -247 -43 -256 0 -14
44 -17 418 -22 229 -4 427 -9 440 -13 l22 -6 0 -369 0 -369 235 0 235 0 0 365
0 365 175 0 175 0 0 -365 0 -365 213 2 212 3 3 366 2 367 31 6 c17 3 51 6 75
6 127 0 392 47 549 97 211 67 367 164 472 293 225 276 278 812 108 1095 -90
149 -258 269 -463 330 l-74 21 69 44 c144 92 246 233 290 400 24 90 23 297 -1
405 -82 366 -383 567 -953 636 l-103 12 -2 366 -3 366 -212 3 -213 2 0 -360 0
-360 -175 0 -175 0 0 360 0 360 -235 0 -235 0 0 -370z m952 -881 c194 -21 364
-85 438 -165 82 -89 120 -214 101 -333 -14 -87 -43 -142 -105 -198 -137 -125
-309 -170 -688 -180 l-228 -6 0 440 c0 242 3 443 7 446 11 11 364 8 475 -4z
m78 -1329 c63 -6 161 -22 218 -36 206 -51 311 -111 383 -218 55 -82 73 -150
66 -252 -15 -242 -196 -377 -592 -440 -62 -10 -200 -18 -367 -21 l-268 -6 0
485 c0 267 3 488 7 491 10 11 424 8 553 -3z"/>
<path d="M3410 8241 c-628 -209 -911 -489 -937 -925 l-6 -99 114 6 c230 13
396 83 545 232 104 104 166 194 240 350 67 142 184 475 166 475 -4 0 -59 -18
-122 -39z"/>
<path d="M9277 8228 c39 -133 110 -323 157 -423 74 -156 136 -246 240 -350
149 -149 315 -219 545 -232 l114 -6 -6 99 c-23 393 -262 663 -762 862 -85 34
-286 102 -300 102 -2 0 3 -24 12 -52z"/>
<path d="M1717 7858 c-112 -402 -131 -650 -67 -886 49 -178 175 -352 334 -461
l44 -30 35 53 c170 257 200 518 91 801 -44 112 -86 190 -182 330 -83 123 -210
285 -222 285 -4 0 -19 -42 -33 -92z"/>
<path d="M10960 7848 c-421 -533 -486 -918 -223 -1314 l35 -53 46 32 c274 194
398 489 362 860 -14 146 -37 267 -85 441 -19 70 -35 130 -35 132 0 19 -31 -12
-100 -98z"/>
<path d="M2849 7161 c-555 -363 -760 -721 -663 -1158 10 -45 21 -73 29 -73 21
0 139 38 200 65 282 125 451 383 510 780 13 92 38 445 31 452 -1 1 -49 -28
-107 -66z"/>
<path d="M9846 7113 c3 -65 12 -180 20 -256 50 -465 227 -745 554 -876 80 -31
168 -56 175 -49 8 8 33 142 40 214 13 129 -22 301 -88 429 -105 205 -364 451
-670 634 l-37 23 6 -119z"/>
<path d="M1300 6648 c0 -88 29 -316 56 -438 95 -426 300 -668 652 -771 l63
-18 8 22 c21 57 36 173 35 277 -1 172 -42 298 -147 455 -53 79 -202 225 -305
300 -93 67 -340 225 -353 225 -5 0 -9 -24 -9 -52z"/>
<path d="M11401 6649 c-409 -245 -617 -467 -692 -734 -35 -126 -29 -360 12
-472 l8 -22 63 18 c92 27 144 50 221 95 269 159 416 450 471 926 17 146 20
240 9 240 -5 0 -46 -23 -92 -51z"/>
<path d="M2807 6140 c-407 -424 -543 -794 -422 -1149 20 -59 68 -168 80 -179
6 -6 111 51 171 94 145 102 255 258 310 439 27 87 28 98 28 315 1 202 -2 241
-27 383 -16 87 -31 167 -36 178 -6 18 -19 8 -104 -81z"/>
<path d="M9881 6189 c-46 -212 -55 -304 -55 -529 0 -217 1 -228 28 -315 55
-181 165 -337 310 -439 61 -44 165 -100 171 -94 2 2 17 30 33 63 93 191 113
378 62 581 -53 207 -240 493 -473 723 l-65 63 -11 -53z"/>
<path d="M1160 5500 c0 -15 82 -176 141 -277 189 -322 396 -513 637 -590 87
-28 246 -40 356 -28 l68 7 -7 56 c-24 195 -113 372 -253 504 -160 151 -386
243 -741 303 -80 14 -158 27 -173 30 -16 2 -28 0 -28 -5z"/>
<path d="M11460 5480 c-410 -71 -631 -167 -802 -349 -113 -120 -192 -291 -213
-463 l-7 -56 68 -7 c110 -12 269 0 356 28 236 75 442 263 624 569 68 115 154
281 154 298 0 12 18 14 -180 -20z"/>
<path d="M3015 5083 c-172 -232 -270 -420 -321 -612 -37 -139 -37 -309 1 -436
27 -92 87 -218 128 -269 l24 -29 48 33 c79 54 192 168 242 243 147 221 170
502 73 888 -34 134 -88 309 -96 309 -2 0 -47 -57 -99 -127z"/>
<path d="M9652 5119 c-164 -511 -160 -848 11 -1106 50 -75 163 -189 242 -243
l48 -33 24 29 c41 51 101 177 128 269 37 123 39 288 6 418 -48 187 -135 363
-286 573 -46 66 -97 135 -113 154 l-30 35 -30 -96z"/>
<path d="M1340 4557 c0 -4 31 -54 69 -111 209 -311 427 -519 639 -607 118 -49
197 -62 347 -56 109 5 225 24 241 40 3 2 -7 42 -22 88 -115 364 -371 558 -826
625 -121 17 -448 33 -448 21z"/>
<path d="M3501 4444 c-149 -303 -211 -519 -211 -736 0 -126 16 -213 56 -314
34 -87 118 -214 182 -277 l49 -48 58 63 c262 286 303 604 133 1033 -39 97
-163 351 -191 388 -12 17 -19 7 -76 -109z"/>
<path d="M9197 4509 c-70 -124 -166 -335 -201 -440 -126 -378 -73 -673 169
-937 l58 -63 44 43 c92 89 172 222 215 358 20 66 23 95 23 240 0 147 -3 176
-28 270 -43 165 -127 376 -218 544 l-27 48 -35 -63z"/>
<path d="M11288 4558 c-568 -22 -879 -172 -1045 -503 -32 -62 -87 -225 -79
-232 16 -16 132 -35 241 -40 150 -6 229 7 347 56 212 89 430 296 639 608 39
57 69 107 67 111 -2 4 -78 4 -170 0z"/>
<path d="M4066 3953 c-35 -113 -53 -590 -27 -723 45 -234 142 -414 290 -537
65 -54 194 -133 218 -133 31 0 109 215 125 346 28 219 -42 433 -221 671 -67
89 -275 311 -343 364 -33 26 -37 28 -42 12z"/>
<path d="M8558 3810 c-94 -95 -192 -205 -231 -260 -213 -299 -258 -571 -142
-866 55 -139 50 -136 137 -91 194 101 343 285 406 502 36 125 47 214 46 395 0
169 -25 436 -44 470 -7 12 -45 -22 -172 -150z"/>
<path d="M2245 3664 c-92 -10 -325 -45 -345 -52 -20 -7 -8 -21 115 -140 354
-342 655 -486 947 -452 103 12 161 28 261 70 91 38 90 33 26 146 -122 213
-287 338 -528 401 -81 21 -123 25 -266 28 -93 2 -188 1 -210 -1z"/>
<path d="M10185 3660 c-90 -14 -228 -56 -293 -89 -135 -68 -256 -187 -341
-335 -64 -113 -65 -108 26 -146 400 -167 756 -55 1208 382 122 118 135 133
116 140 -101 37 -580 69 -716 48z"/>
<path d="M4780 3214 c0 -14 76 -187 130 -294 156 -310 320 -495 531 -594 115
-55 213 -76 357 -76 l122 0 0 28 c0 16 -7 71 -16 123 -59 347 -288 581 -704
717 -101 33 -372 102 -402 102 -10 0 -18 -3 -18 -6z"/>
<path d="M7835 3184 c-77 -19 -183 -49 -235 -66 -445 -146 -679 -406 -716
-797 l-7 -73 144 5 c168 5 228 19 354 82 201 99 357 276 509 575 56 110 136
289 136 304 0 12 -49 4 -185 -30z"/>
<path d="M3300 2954 c-94 -11 -226 -39 -333 -70 -123 -36 -306 -101 -320 -114
-19 -17 328 -232 483 -300 275 -120 484 -139 712 -64 76 25 225 107 262 144
19 19 19 19 -9 57 -123 163 -291 280 -463 323 -75 19 -261 33 -332 24z"/>
<path d="M9262 2950 c-217 -31 -411 -150 -557 -343 -28 -38 -28 -38 -9 -57 10
-11 56 -42 102 -69 349 -209 737 -144 1260 212 57 38 100 73 95 77 -31 28
-390 140 -530 165 -111 19 -279 27 -361 15z"/>
<path d="M4315 2424 c-186 -42 -413 -158 -657 -339 l-99 -72 28 -11 c125 -51
362 -114 509 -137 133 -21 376 -16 469 10 90 25 232 97 303 155 64 52 172 175
172 194 -2 31 -210 150 -325 186 -94 30 -298 37 -400 14z"/>
<path d="M8145 2426 c-33 -8 -80 -22 -105 -31 -96 -34 -279 -146 -280 -171 0
-19 108 -142 172 -194 71 -58 213 -130 303 -155 93 -26 336 -31 469 -10 147
23 384 86 509 137 l28 11 -103 75 c-212 157 -430 274 -603 323 -93 27 -305 35
-390 15z"/>
<path d="M6309 2230 c-112 -59 -142 -205 -62 -300 78 -93 228 -93 306 0 60 71
60 179 0 250 -57 68 -167 91 -244 50z"/>
<path d="M5415 2076 c-191 -37 -383 -137 -610 -317 -101 -79 -205 -171 -205
-179 0 -9 196 -56 340 -82 85 -15 161 -21 290 -22 184 -1 265 11 390 57 142
52 295 174 387 309 l48 70 -30 24 c-46 37 -182 100 -265 124 -96 27 -252 34
-345 16z"/>
<path d="M7145 2084 c-63 -11 -153 -37 -217 -64 -73 -31 -178 -95 -178 -108 0
-19 69 -111 134 -180 246 -259 603 -322 1136 -201 74 17 145 34 158 36 12 3
22 9 22 14 0 14 -248 216 -357 290 -126 86 -282 162 -389 189 -77 21 -249 33
-309 24z"/>
</g>
</svg>
